<?xml version="1.0" encoding="UTF-8"?>
<svg xmlns="http://www.w3.org/2000/svg" viewBox="461 603 2856 2557" width="2856" height="2557">

<g transform="translate(0,3762) scale(0.1,-0.1)" fill="#FFFFFF" stroke="none"><path d="M9647 30473 c-11 -10 -8 -13296 2 -13312 8 -13 174 -15 1167 -18 831
-2 1161 0 1171 8 11 9 13 848 13 4876 0 2676 3 4869 6 4874 6 11 197 -179 660
-656 395 -407 553 -569 1514 -1550 124 -126 354 -362 510 -524 324 -335 602
-621 935 -961 393 -401 648 -662 985 -1010 830 -855 1038 -1069 1225 -1260
199 -204 699 -721 869 -897 l89 -93 1634 0 c1415 0 1634 2 1631 14 -4 18 -530
567 -1148 1196 -570 582 -1214 1242 -1375 1410 -66 69 -219 226 -340 350 -121
124 -398 407 -615 630 -217 223 -485 497 -595 610 -311 318 -585 599 -766 785
-361 372 -522 537 -924 950 -231 236 -476 488 -545 560 -69 71 -222 229 -340
350 -119 121 -352 362 -520 535 -167 173 -394 407 -505 520 -110 113 -376 385
-590 605 -214 220 -520 533 -680 695 -159 162 -385 392 -500 510 -116 118
-303 310 -416 425 -113 116 -243 249 -289 298 l-84 87 -1086 0 c-598 0 -1090
-3 -1093 -7z"/>
<path d="M23785 15354 c-16 -2 -73 -9 -125 -14 -477 -53 -949 -266 -1325 -600
-293 -259 -544 -636 -674 -1013 -86 -249 -150 -661 -137 -872 38 -569 150
-929 420 -1340 236 -360 614 -670 1036 -850 213 -91 376 -136 645 -177 199
-30 531 -30 730 1 624 97 1120 368 1527 836 153 176 328 470 408 686 112 303
154 523 166 879 8 226 -3 331 -72 660 -14 65 -40 146 -101 315 -53 147 -196
394 -334 576 -186 245 -500 510 -768 648 -254 130 -474 201 -761 246 -100 16
-561 29 -635 19z m385 -999 c200 -25 408 -108 598 -237 222 -151 435 -446 520
-718 49 -156 62 -227 72 -390 10 -165 2 -292 -27 -410 -73 -304 -201 -538
-405 -741 -147 -146 -247 -215 -413 -284 -338 -140 -712 -138 -1039 5 -383
169 -635 459 -770 885 -43 134 -58 232 -63 410 -11 349 65 628 242 897 76 115
229 275 335 350 77 55 245 142 315 164 251 78 420 97 635 69z M12906 15297
c-8 -12 -33 -65 -56 -117 -22 -52 -45 -102 -50 -111 -4 -9 -27 -61 -50 -115
-42 -98 -50 -117 -109 -246 -17 -37 -47 -107 -67 -155 -20 -49 -43 -102 -50
-120 -8 -17 -14 -34 -14 -37 0 -3 -20 -49 -45 -102 -25 -52 -45 -97 -45 -99 0
-2 -20 -47 -45 -99 -25 -53 -45 -101 -45 -106 0 -6 -4 -18 -10 -28 -5 -9 -26
-57 -46 -107 -21 -49 -41 -94 -45 -100 -3 -5 -59 -134 -124 -285 -65 -151
-128 -297 -140 -325 -44 -94 -73 -160 -95 -215 -12 -30 -26 -63 -31 -73 -5 -9
-19 -43 -31 -75 -11 -31 -24 -61 -28 -67 -4 -5 -74 -165 -155 -355 -81 -190
-151 -349 -156 -355 -5 -5 -9 -15 -9 -22 0 -7 -17 -50 -39 -95 -21 -46 -48
-108 -61 -138 -12 -30 -25 -62 -30 -71 -4 -8 -33 -75 -64 -147 -31 -72 -74
-170 -96 -217 -22 -47 -40 -90 -40 -95 0 -5 -7 -21 -15 -37 -8 -15 -21 -44
-29 -63 -34 -86 -90 -219 -111 -265 -50 -110 -125 -292 -125 -303 0 -9 130
-12 543 -10 l542 3 25 50 c14 28 36 75 49 105 12 30 26 64 31 75 5 11 35 81
66 155 31 74 68 160 81 190 13 30 28 64 33 75 5 11 23 51 39 88 17 38 31 71
31 74 0 3 6 19 14 36 8 18 27 61 41 97 15 36 34 71 43 78 12 9 226 12 992 12
765 0 980 -3 993 -12 9 -7 32 -53 50 -103 26 -69 225 -563 260 -645 4 -8 30
-73 59 -145 l53 -130 568 -3 c453 -2 567 0 567 11 0 7 -23 66 -51 132 -27 66
-115 275 -194 465 -222 534 -433 1035 -641 1521 -79 185 -163 385 -188 445
-24 60 -58 139 -75 176 -17 37 -42 96 -56 130 -14 35 -30 72 -35 83 -5 11 -51
119 -103 240 -52 121 -129 301 -172 400 -42 99 -81 189 -86 200 -24 59 -52
123 -64 150 -31 69 -135 321 -135 327 0 5 -19 50 -43 100 -24 51 -60 136 -81
188 -20 52 -49 120 -64 150 l-27 55 -497 2 -498 2 -14 -22z m518 -1303 c9 -8
16 -20 16 -26 0 -9 168 -413 201 -483 5 -11 34 -87 65 -170 48 -129 94 -244
148 -370 7 -16 39 -97 70 -180 32 -82 64 -165 72 -183 8 -18 12 -38 9 -43 -4
-5 -250 -9 -615 -9 -503 0 -609 2 -613 14 -3 7 3 31 13 52 10 21 26 59 36 84
9 25 30 73 46 108 15 34 28 67 28 72 0 6 4 18 9 28 16 28 101 221 101 227 0 8
158 379 230 540 7 17 59 138 137 323 15 36 24 39 47 16z M5732 15281 c-11 -7
-14 -411 -13 -2362 1 -1295 1 -2360 1 -2366 0 -10 112 -13 529 -13 l529 0 7
133 c4 72 5 734 3 1470 -2 941 0 1337 8 1337 15 0 38 -21 65 -60 13 -19 60
-80 104 -135 44 -55 125 -158 180 -230 55 -71 131 -170 170 -220 39 -49 109
-139 155 -200 275 -361 487 -637 640 -835 96 -124 223 -288 281 -365 59 -77
182 -237 273 -355 91 -118 220 -286 287 -373 66 -87 129 -161 139 -165 10 -4
214 -6 453 -4 l434 2 6 318 c11 491 8 4395 -3 4412 -7 12 -85 14 -527 15 -285
0 -524 -4 -531 -8 -11 -7 -13 -266 -10 -1397 1 -764 -1 -1393 -6 -1397 -12
-12 -77 68 -371 457 -93 124 -209 275 -257 335 -78 98 -154 196 -438 566 -209
272 -413 536 -490 634 -96 122 -325 421 -498 650 -63 83 -121 153 -130 157
-25 9 -975 9 -990 -1z M16885 15281 l-100 -6 0 -2365 0 -2365 535 0 535 0 5
740 c3 407 9 746 13 753 10 15 758 18 787 2 10 -5 35 -38 56 -72 38 -63 144
-226 458 -703 94 -143 221 -336 283 -430 61 -93 131 -198 155 -232 l43 -63
592 0 c325 0 597 -2 605 -5 7 -3 19 -1 27 4 11 7 8 17 -17 52 -16 24 -105 159
-197 299 -92 140 -189 288 -216 328 -27 39 -71 105 -98 145 -27 39 -84 126
-126 192 -163 251 -406 614 -415 620 -6 3 -10 17 -10 31 0 18 8 27 28 35 74
28 207 99 297 158 121 80 303 253 375 356 68 99 153 277 190 400 53 175 72
338 67 564 -5 228 -18 341 -53 466 -114 406 -373 715 -759 904 -263 129 -486
177 -900 191 -266 10 -1992 10 -2160 1z m2325 -1010 c240 -74 402 -221 452
-411 20 -79 22 -285 2 -370 -51 -225 -200 -374 -453 -453 -63 -19 -95 -20
-694 -24 -499 -3 -632 -2 -644 9 -13 11 -15 84 -11 633 2 341 7 626 12 633 6
11 126 13 634 10 620 -4 628 -4 702 -27z M27440 15281 l-85 -6 0 -2365 0
-2365 510 0 510 0 3 1478 c2 1396 3 1478 19 1475 10 -2 27 -18 38 -36 11 -18
63 -99 116 -180 52 -81 147 -229 210 -329 63 -101 141 -225 174 -277 33 -51
96 -150 140 -220 44 -69 143 -223 220 -341 77 -118 194 -298 260 -400 75 -116
125 -184 135 -182 12 2 278 391 519 762 47 72 140 213 207 315 296 450 574
876 577 884 2 5 11 7 20 3 16 -6 17 -106 17 -1482 l0 -1475 512 -2 c413 -2
514 0 525 10 11 11 13 430 13 2367 0 2274 -1 2355 -18 2364 -21 11 -1006 16
-1059 5 -34 -7 -48 -26 -197 -269 -37 -60 -96 -155 -132 -210 -35 -55 -67
-107 -71 -115 -3 -8 -21 -37 -38 -65 -75 -117 -184 -290 -265 -420 -61 -98
-215 -345 -263 -419 -47 -76 -158 -255 -288 -469 -14 -23 -29 -42 -34 -42 -5
0 -48 63 -96 140 -47 77 -141 230 -209 340 -68 110 -192 313 -275 450 -84 138
-199 324 -255 415 -57 91 -146 237 -198 325 -142 241 -201 333 -221 338 -26 6
-921 5 -1021 -2z"/>
<path d="M22797 30479 c-177 -9 -464 -34 -547 -49 -30 -5 -102 -17 -160 -26
-118 -18 -294 -50 -355 -64 -184 -43 -307 -73 -345 -84 -25 -8 -74 -21 -110
-31 -75 -20 -419 -134 -500 -165 -30 -12 -66 -25 -80 -30 -33 -11 -93 -36
-158 -66 -29 -13 -55 -24 -57 -24 -24 0 -512 -246 -605 -305 -22 -14 -42 -25
-45 -25 -10 0 -209 -124 -364 -229 -160 -106 -397 -289 -567 -436 -196 -169
-556 -542 -719 -744 -33 -41 -80 -100 -105 -130 -201 -249 -427 -609 -622
-991 -87 -171 -109 -219 -168 -355 -12 -27 -27 -63 -34 -80 -13 -29 -65 -162
-92 -235 -73 -199 -135 -398 -137 -440 -2 -34 10 -48 213 -260 118 -124 307
-319 420 -435 113 -115 264 -271 335 -345 503 -522 592 -610 614 -610 14 0 20
9 24 33 3 17 12 66 20 107 9 41 22 111 31 155 61 319 184 716 313 1005 118
267 207 433 406 754 223 361 660 830 1042 1118 668 502 1406 794 2248 888 437
49 931 30 1356 -51 290 -56 631 -155 888 -259 302 -122 689 -338 961 -536 83
-60 152 -104 166 -104 17 0 93 73 291 278 148 152 332 342 410 422 392 403
725 760 725 778 0 13 -28 44 -72 83 -160 138 -605 455 -803 572 -44 26 -87 52
-95 57 -8 5 -42 23 -75 41 -33 18 -98 53 -145 79 -309 170 -813 376 -1168 475
-212 60 -382 105 -426 115 -347 71 -478 92 -771 125 -277 31 -780 42 -1138 24z
M22945 24738 c-3 -7 -4 -454 -3 -993 l3 -980 1433 0 c1252 0 1434 -2 1442 -15
11 -17 14 -2820 3 -2859 -5 -19 -42 -41 -197 -116 -105 -50 -207 -98 -226
-105 -19 -7 -48 -19 -65 -26 -65 -28 -111 -46 -135 -54 -14 -5 -50 -18 -80
-30 -195 -75 -566 -181 -735 -210 -27 -5 -104 -18 -169 -30 -286 -49 -464 -64
-796 -64 -211 0 -341 4 -395 12 -145 24 -299 54 -374 73 -72 18 -136 19 -1699
19 l-1623 0 3 -24 c7 -55 670 -735 908 -933 284 -235 576 -437 840 -580 324
-177 421 -222 693 -324 341 -128 514 -176 912 -256 115 -23 253 -42 380 -53
66 -6 164 -15 218 -20 208 -21 551 -8 952 36 222 25 298 35 390 54 28 5 100
19 160 30 61 12 137 27 170 35 33 8 121 28 195 45 283 65 798 234 1035 340 74
33 115 50 119 50 16 0 457 216 616 301 236 127 531 314 930 589 l115 80 5 227
c3 126 3 1479 0 3008 l-5 2780 -2508 3 c-2001 2 -2509 0 -2512 -10z"/>
<path d="M10373 8861 c-219 -59 -386 -170 -512 -341 -217 -292 -228 -735 -28
-1030 119 -174 334 -315 537 -351 103 -18 215 -27 275 -22 190 14 356 55 463
115 97 53 220 139 224 156 2 10 5 173 7 363 3 310 1 347 -14 362 -15 15 -50
16 -368 11 -194 -3 -355 -9 -360 -13 -9 -9 -19 -259 -11 -283 5 -16 23 -18
188 -18 128 0 186 -4 194 -12 15 -15 16 -211 2 -238 -25 -47 -224 -110 -347
-110 -148 0 -280 45 -362 123 -104 101 -152 193 -172 335 -26 185 33 377 150
492 65 63 171 123 249 139 153 32 334 -9 495 -113 32 -20 63 -36 70 -36 20 0
217 229 217 252 0 23 -109 107 -184 143 -39 18 -111 46 -161 61 -82 25 -106
28 -285 31 -168 2 -205 0 -267 -16z M18660 8866 c-329 -75 -568 -293 -673
-614 -19 -59 -22 -89 -22 -252 0 -192 2 -203 57 -350 47 -128 191 -306 308
-381 155 -101 326 -149 528 -149 215 0 361 41 522 148 254 168 401 464 387
777 -10 216 -80 386 -224 549 -124 139 -272 226 -463 271 -80 18 -339 19 -420
1z m318 -331 c91 -22 178 -69 248 -136 111 -107 154 -218 154 -400 0 -78 -5
-131 -16 -165 -61 -189 -196 -322 -378 -370 -158 -42 -369 18 -488 138 -225
230 -207 625 37 827 127 105 286 143 443 106z M13975 8838 c-3 -7 -4 -391 -3
-853 l3 -840 180 0 180 0 5 275 5 275 140 0 c77 1 148 -1 158 -3 10 -3 98
-125 199 -278 l181 -274 208 0 c114 0 210 4 213 9 3 5 -3 19 -13 32 -17 22
-66 94 -298 436 -51 74 -90 140 -87 145 3 5 35 23 71 40 76 35 188 140 220
203 55 108 66 165 61 317 -6 190 -28 249 -134 356 -86 87 -174 132 -305 156
-113 21 -977 24 -984 4z m909 -338 c71 -27 120 -81 142 -156 35 -122 -15 -229
-134 -287 -44 -21 -63 -22 -285 -25 -174 -2 -242 0 -253 9 -11 9 -14 54 -14
239 0 124 3 230 7 233 3 4 113 7 244 7 215 0 243 -2 293 -20z M22356 8841 c-3
-5 -6 -254 -6 -553 -1 -579 3 -636 50 -760 30 -82 91 -168 165 -236 136 -125
285 -172 542 -172 169 0 258 19 382 81 98 50 183 131 243 231 102 172 109 228
106 888 l-3 525 -174 3 c-123 2 -177 -1 -182 -9 -4 -6 -7 -242 -8 -523 -1
-307 -6 -535 -12 -571 -14 -77 -62 -168 -110 -206 -155 -123 -399 -113 -530
22 -101 104 -110 171 -109 784 1 264 1 486 1 493 -1 9 -43 12 -175 12 -96 0
-177 -4 -180 -9z M26495 8828 c-3 -13 -4 -396 -3 -853 l3 -830 174 -3 c133 -2
176 1 183 10 4 7 7 123 7 256 -1 134 3 248 7 252 5 5 115 10 244 13 180 3 249
8 295 21 161 45 315 160 373 278 38 79 58 159 67 270 11 145 -39 302 -132 407
-54 62 -140 121 -219 151 -123 45 -176 50 -596 50 l-398 0 -5 -22z m810 -321
c185 -62 234 -293 91 -425 -71 -66 -141 -82 -352 -82 -169 0 -175 1 -183 21
-10 30 -3 491 8 498 5 3 94 6 198 5 147 0 199 -4 238 -17z"/></g>
</svg>